# xmcd CD database file
#
# Track frame offsets:
#	150
#	13706
#	24721
#	41558
#	56212
#	68733
#	83864
#	107170
#	120651
#	138396
#	150136
#	160512
#	175089
#	200189
#	212945
#	225776
#	239193
#	250887
#
# Disc length: 3501 seconds
#
# Revision: 0
# Processed by: cddbd v1.5.2PL0 Copyright (c) Steve Scherf et al.
# Submitted via: CDex 1.50
#
DISCID=f30dab12
DTITLE=Various Artist - Les rois du blues vol 1
DYEAR=1900
DGENRE=Blues
TTITLE0=Livin'with the blues
TTITLE1=That mean old train
TTITLE2=The way I feel
TTITLE3=Diggin' my potatoes
TTITLE4=Crawlin' king snake
TTITLE5=Goin' down slow
TTITLE6=City all blues
TTITLE7=Gone baby gone
TTITLE8=Alberta
TTITLE9=Buck dance boogie
TTITLE10=Mean old Frisco
TTITLE11=One room country shack
TTITLE12=Bertha May
TTITLE13=Bottom blues
TTITLE14=Hobo blues
TTITLE15=She don't treat me good no more
TTITLE16=I wonder why
TTITLE17=Trying to change my ways
EXTD=
EXTT0=
EXTT1=
EXTT2=
EXTT3=
EXTT4=
EXTT5=
EXTT6=
EXTT7=
EXTT8=
EXTT9=
EXTT10=
EXTT11=
EXTT12=
EXTT13=
EXTT14=
EXTT15=
EXTT16=
EXTT17=
PLAYORDER=
